<svg xmlns="http://www.w3.org/2000/svg" width="358.3483597611973" height="353.88499145507814" viewBox="0 0 312.5 308.60769086094956" class="looka-1j8o68f"><defs id="SvgjsDefs1015"></defs><g id="SvgjsG1016" featurekey="rootContainer" transform="matrix(2.895007848739624,0,0,2.895007848739624,-0.16086010229347886,0)" fill="#fffeec"><g xmlns="http://www.w3.org/2000/svg"><path d="M19.8 15.3h.5l-.4-.2zm.5.1zm.8-.7c0 .1 0 .1.1.1l.4-.3c-.2-.1-.3-.1-.5.2zm.4-.2zm-4.1 2.3zm-.2.6l.3-.2c.1-.1.1-.2.1-.2h-.2l-.2.4c-.1-.1-.1 0 0 0zm2.2-2.9h-.1l-.2.2h.3zm-2.1 2.4l.6-.5c.1-.1.1-.2.1-.3h-.3l-1.2 1.1-.2.4.7-.6zm-1.1.8z"></path><path d="M9.7 25v-.2a1.7 1.7 0 0 1 .7-1.1l.9-.6.5-.6.7-.7.4-.4.4-.3a1.9 1.9 0 0 0 .8-.9l.4-.5a5.9 5.9 0 0 0 1-1.3l.2-.3.3-.2-.2-.3.4-.5c.8-.6 1.4-1.4 2.2-2l.3-.3a1.4 1.4 0 0 1 .5-.6l.8-.4h.4a1.4 1.4 0 0 0 .7-.6V13a3.5 3.5 0 0 1 1.3-1.4l.8-.5.2-.2.4-.4 1-.5h.2l-1.1.4-1.4 1c-.6.5-1.4.6-1.8 1.4h.3c-.7.2-1.4.5-1.7 1.2s-.8.6-1.2.9a.4.4 0 0 0-.3.4c-.8-.1-1.1.5-1.5.9v.8a3.9 3.9 0 0 0-1.6 1.4c-1.6.1-1.6 2.1-3 2.5h-.1a.2.2 0 0 0 0 .2c-.3 0-.5.2-.4.5l-.2.5c-.7.4-.6 1.1-1 1.7-.8.5-1.1 1.5-1.7 2.2l.3.5.2-.2a11.6 11.6 0 0 1 .9-1.3zM53.9 3.3l.6.2h.2a2.2 2.2 0 0 0 1.4.2 4.1 4.1 0 0 1 1.9.1h1.2a1.4 1.4 0 0 1 1.2.3.1.1 0 0 1 0 .1H60a.1.1 0 0 0 0 .1h.7a1.8 1.8 0 0 1 1.3 0c.2 0 .1.1.2.2l.5.2h-.2c-.2-.4-.5-.4-.8-.4a9.7 9.7 0 0 0-4.3-.9h-.8A9.8 9.8 0 0 0 53 3h.2zm7.3 3.1zM50.3 4.7zm10.9 1.7h.2-.2zM19 14.7zm32.1-10zm17.6 2.2a.9.9 0 0 0 1 .2h.6a3.1 3.1 0 0 0-1.8-.7l-.7-.2.5.3zm-3.4-1.3c0 .1.1.2.2.3h.2l.5-.3a4.2 4.2 0 0 0-1.7-.6l.7.4zm7.4 2.7l.8.5c-.2-.3-.4-.5-.8-.5z"></path><path d="M99 76.1l.6-1.6.6-1.5c.2-.5.6-1.8.8-2.6a1.7 1.7 0 0 1 .3-.7h.1v-1.1c.5-.1.4-.6.5-.9l.8-4.7a12.7 12.7 0 0 0 0-6.2 1.9 1.9 0 0 0-.5-1.6v-4.3c-.3-.9.3-1.9-.4-2.7L101 45a.4.4 0 0 0 0-.2l-.2-.6a.5.5 0 0 1 0-.4h.1c.3 0 .3-.5.3-.9a3 3 0 0 0-.4-1.1l-.3-.4a1.1 1.1 0 0 1-.2-.7 6.7 6.7 0 0 0-.2-2v-.6c-.2-.7-.4-1.5-.6-2.2l-.2-.5a2.5 2.5 0 0 1-.4-1.1 2.5 2.5 0 0 0-.3-.8l-.6-1a.8.8 0 0 0-.6-.2h-.1V32h-.2v-.8H97V31a.4.4 0 0 0 0-.1v-.2c.1-.2.1-.3-.1-.5a1.8 1.8 0 0 1-.4-.6l-.2-.6a2.9 2.9 0 0 0-.7-1.2 2.2 2.2 0 0 1-.5-.7l-.7-1.6a4.3 4.3 0 0 0-.6-1l-.6-.8a2.4 2.4 0 0 1-.4-.8l-.2-.3a.6.6 0 0 1-.1-.5.5.5 0 0 0-.2-.4l-.4-.3v.2c.1.2 0 .3-.1.3h-.2l.3 1 .3.5.7.9h-.1l-.2-.2-.2-.2a1.3 1.3 0 0 0-1.2-1.1v-.7c-.3-1.2-1.6-1.3-2.2-2.1a1.5 1.5 0 0 0-1.1-.9l-.8-.9a11.3 11.3 0 0 0-3.1-3l-.8-.6-.4-.3c-.7-.7-1-1.8-2.2-1.8l-.8-.5-.9-.7a2.2 2.2 0 0 0-1.8-1.3 5.1 5.1 0 0 0-2.3-1.2l.2.2.5.4 1.3.7a8.5 8.5 0 0 1 2.1 1.6 6.8 6.8 0 0 0 1.5 1.1l.6.5c.1.1.2.2.1.3H81l-.9-.3a5.6 5.6 0 0 1-2-.8l-1.2-.6-1.3-.7h-.2c-.3-.1-.4-.4-.8-.5l-.8-.2-2.5-.5a2.6 2.6 0 0 1-.9-.7 1.7 1.7 0 0 1-.9-.3l-1-.4a18.1 18.1 0 0 1-2.8-.8l-.6-.2-1-.3h-.5l-.2-.3v-.1h-1.6l-.6-.5-.4.2-.4.2h-.2l-.9-.5c-.6.6-1.1-.2-1.6-.1l-1-.3a1.2 1.2 0 0 1-1.2 0h-1.2a.6.6 0 0 1-.5-.6l.3-.2h.6a.7.7 0 0 1 .1.3c0 .2.2.2.5.2h.2l-.4-.6a1.1 1.1 0 0 0-1-.2l-1 .3H53c.3.2.2.3.2.5h-1.6l-.4-.2-.8-.4h-.1l-.7-.2h-2.3l.4-.2.8-.2h.3l1.7-.3 1.1-.2.6-.2h-1.1a8.4 8.4 0 0 0-3.4 0h-1.3L43 3.6c-1.4.1-2.8 0-3.9 1.2-2.5-.4-4.7.7-6.9 1.8l-2.2.9a6.7 6.7 0 0 0-3.7 1.8h.3l.5-.3.8-.5 1.3-.6 1-.2a6 6 0 0 1 2-.9l.9-.3h.2c.1.2.5 0 .7 0h.2c.1 0 .1.1 0 .1l-.6.4 1-.3.8-.2-1.3.7-1.3.4a1 1 0 0 0-.6.5l-.3.5h.3l.4-.2a1.4 1.4 0 0 1 .9-.6l1.5-.5h.5a.1.1 0 0 1 .1.2c-.2.2-.6.3-.8.5h.2l-3.2.9-3.8 1.6a5.2 5.2 0 0 1-2.3 1.2 6.6 6.6 0 0 1-1.7 1.1l-.8.2a1.5 1.5 0 0 1-1.3.9l-.3.5a3.7 3.7 0 0 1-1.2 1.1h-.1v-.1l-.2.2-.2.2-1 .2h-.5l-.4.5c-.1.1-.1.2 0 .2h.1c-.6.6-1 1.4-1.8 1.7L15 19.9c-.6 1.2-1.8 1.6-2.6 2.6s-1.4 3.9-3.9 4.3l-.2-.3-.2.5a2.7 2.7 0 0 1-.4.8 16.9 16.9 0 0 0-1.2 2.1.8.8 0 0 0-.1.5 1.4 1.4 0 0 1-.2.8l-.5 1.1h.2c.3 0 .3.3.4.6l.8-1.1a2.2 2.2 0 0 1 .6-.7 2 2 0 0 0 .9-.9l.3-.3.4-.4.6-1.1h.2c.1.1.1.1.2 0l.2-.4h.5v.8l.5-.5a.5.5 0 0 0 0-.5.4.4 0 0 1 .1-.3 1.5 1.5 0 0 0 .3-.5 1.3 1.3 0 0 1 .8-.9l.3-.2.3-.3a2.4 2.4 0 0 0 .8-1l-.2-.3c0-.1.1-.3.2-.4h.5l.6-.8.6-.3h.2a48.8 48.8 0 0 0-5.5 7.2h-.1.1a48.4 48.4 0 0 0-5.3 11.2h-.5l-.5-.4c-.2-.2-.1-.7-.4-.9h.1c.3-.5-.1-1.2.3-1.7s.1-1.4-.9-1.2-1.5.5-1.3 1.5-1 1.8-1.1 2.9-.5.5-.3.9v3.9c.1.8-.5 1.8.8 2.1l1.3.9c.1.5-.5 1.6.9 1.3a49.2 49.2 0 0 0-.3 5c0 1.1.1 2.2.1 3.3v-.4c-.1-.4-.1-.8-.2-1.3l-.3.3v-.2h-.5c0 .5-.1.8-.4.9a.9.9 0 0 0-.1.5c0 .1.1.3.2.2s.4.2.7.4-.2.3-.4.2-.2.1-.2.3v.3l.5 1.5c0 .3-.1.6-.1.9a1.7 1.7 0 0 0 .2.8h-.3v-.3l-.7-.2v-.6a1.5 1.5 0 0 0 0-.5 14.6 14.6 0 0 1-.3-1.8 16.6 16.6 0 0 1-.2-3.5.9.9 0 0 1 .1-.5v.2a2.9 2.9 0 0 1 .1.5.8.8 0 0 0 .1.4c.1.2.2.4.4.4s.1-.1.1-.2a2.1 2.1 0 0 0-.1-.5 4.2 4.2 0 0 1-.3-1.3 1.5 1.5 0 0 0-.3-.7 1.6 1.6 0 0 1-.2-.9v-.8c0-.3.1-.6.1-.9a.5.5 0 0 0-.1-.4h-.1c-.8.4-.7.2-1 1.6V55c0 .7-.1 1.4 0 2.1a10.8 10.8 0 0 0 .2 2.3 1.8 1.8 0 0 1 0 .5 3.1 3.1 0 0 0 .1.9 5.9 5.9 0 0 1 .1 1.3 3.9 3.9 0 0 0 .2 1.7 1.2 1.2 0 0 1 0 .4 2.1 2.1 0 0 0 .1.8 4.9 4.9 0 0 1 .2.9 14 14 0 0 0 .5 2.2 5 5 0 0 1 .2 1 1.7 1.7 0 0 0 .3.7 2.9 2.9 0 0 1 .5 1.2 8.5 8.5 0 0 0 .3 1l.4 1.4a5.4 5.4 0 0 0 .6 1.5 8.5 8.5 0 0 1 .8 2.1l.2.5a2.1 2.1 0 0 1 .5 1 2.1 2.1 0 0 0 .4.8 1 1 0 0 1 .2.5c.1.3.2.4.4.3h.1v.9l.5 1 .5 1 1.1 1.2.4.4c.3.3.7.5.9 1l.4.3a.7.7 0 0 1 .3.5l.2.7a3.3 3.3 0 0 0 .6.9l.4.2h.3a.2.2 0 0 1 .1.3 2.5 2.5 0 0 0 0 .5.9.9 0 0 0 .4.5h.2c.4-.1.8.2 1.2.7h.1c0-.1.1-.1 0-.2v-.2c0-.1.1-.2.2-.1a.7.7 0 0 1 .3.6v.2a4.3 4.3 0 0 0 .4 1.2c.5.3.5.3.5.1s0-.2.2-.2h.4l.2.3.8.5c.7.8 1.8.7 2.6 1.2l1.7 1.7h.2a2.9 2.9 0 0 0 1.6 1.6 1.3 1.3 0 0 0 1 .6c0 .5.6.6 1.1.7a1.2 1.2 0 0 0 .8.4h.2a1.7 1.7 0 0 0 1.5.5l.9.8 2.4.9v.2c.5 1.1 1.7.7 2.5 1l1.1.4h.4c1.2.3 2.4.9 3.7.5a.7.7 0 0 0 0 .4c1.1.7 2.4 0 3.6.4a2.9 2.9 0 0 0 1.7.1h.1l.8.2h.3l.9.2h.3a.5.5 0 0 1 .5 0 7.9 7.9 0 0 0 1.5.4h.6a.7.7 0 0 1 .7 0h3.9a5 5 0 0 0 1.6-.1h1l.5-.2H60l.6-.2.5-.3h2.2v.6H62l-1.2.2c-.4.1-.7 0-1 .1a2.4 2.4 0 0 1-1 .2l-1.3.3h-.4a3.1 3.1 0 0 0-1.5.1h-1.8a1.1 1.1 0 0 1-.9 0h-4.5a1.3 1.3 0 0 0-1.1.3H47l-.3-.2v-.3h-1.2a4.1 4.1 0 0 0-1.3-.3h-2.5l-.7-.2-.5-.2-2.1-.4h-.5l-.5-.2-2.1-.7-1.4-.4h-2.2c-.1 0-.1.1-.1.2h.2c1.3.5 2.6.9 3.9 1.5h.3l.9.2 1.4.4h1.3l.6.2.7.3 1.7.3 1.1.2 1.1.2h.8l.8.2h3.1l1 .2h2.3l1-.2H56c.4 0 .6-.1.7-.3h1a1 1 0 0 0 .8-.3c-.1.1 0 .1.1.2h.4v-.2c0-.1 0-.1.2-.2s.6-.1.7.1h.4l.3-.2c.2 0 .2 0 .2.1h.7l.5-.2.8-.4c.1.3.4.4 1.3.2l1.3-.4h1.2c.9-.1 2 0 2.7-.7h.2l.4-.3 1.1-.3a6.1 6.1 0 0 0 2-.8l.4-.2h.1l.9-.6.4-.2.5-.2h.4c.4-.1.4-.1.5-.4s0-.1-.2-.1h-.1l.4-.5h.2c.3-.1.5-.2.7-.1h.2a1.3 1.3 0 0 0 .9-.9c.3-.4 1.1-.2 1.3-.8l4.3-3.1c1.1-.1 1.4-1.1 2.2-1.7s2.3-1.1 3-2.2l.9-.4h.1a1 1 0 0 0 1.2-.7v.4c.8-.4 1.8.3 2.6-.5s0-2.7 1-3.8l.7-.5a12.1 12.1 0 0 0 1.5-4.2l.2-.2c0-.3 0-.7.4-.9a.9.9 0 0 0 .2-1.2h-.2a.3.3 0 0 0 0-.3c.7 0 .8-.7 1.2-1V77a.5.5 0 0 1 0-.2 3.8 3.8 0 0 0 .1-.7zM5.9 32.2z"></path><path d="M26.4 9.3l-.3.2-.4.3.5-.2zm6.1-2h.1l.3-.2h-.4zm-2.6 1l-.1.1h.1v-.1zm-1.5 1.4zm1.3-.2zm-6.3 3.1zM9.2 26.2l-.4.4H9a.4.4 0 0 0 .2-.4zm3-3.5a2.1 2.1 0 0 0 .3-.6 1.5 1.5 0 0 0-.5.5c-.1.1-.1.2 0 .2zM11 24.2V24c-.2 0-.5.3-.8.3v.2c.3.3.4.2.8-.3zm3 66.2zM73.9 9.2h.1l-.5-.3zm-2.5-1.4c.5-.1.8.4 1.2.5h.1l-.3-.2-1-.5-1.1-.5.3.2zM52.8 3.1zm11.7 2h-.1l-1.2-.2h.5zm2 .7l1.3.4a3.3 3.3 0 0 0-1.3-.4zm-9 0a1 1 0 0 0 .2-.5h-.5l-.3.3.4.3zm9 1.6zM49.9 4.2zm2.9.7zM48.5 4zm13.8 2.1a.5.5 0 0 0 0 .1zm44.8 52.3h-.3V58h.3c.1 0 .2-.3.1-.4s-.1-.7-.3-.8a.3.3 0 0 1-.2-.3l.2-.4a.4.4 0 0 0 0-.2h-.2l-.2-.3c-.1.3-.2.6-.4.7a.5.5 0 0 0 0 .2c0 .1 0 .2-.1.2h-.1a1.1 1.1 0 0 1-.1.3 2.3 2.3 0 0 0-.4.9.4.4 0 0 0 .1.4h.1a1.7 1.7 0 0 0-.1.8v.4a1.8 1.8 0 0 1-.1.5h-.1l-.4.7v.6a1.5 1.5 0 0 1-.3 1.1h-.2l-.2-.2a.9.9 0 0 1-.1-.8 6.5 6.5 0 0 0 .1-1.7c0-.1-.1-.2-.1-.2a.5.5 0 0 0-.1.3v.6c0 .2-.1.6-.3.7s-.1.2-.1.3l-.2.6.3.5c-.2.2-.4.1-.5-.1v1h.3v.4a4.2 4.2 0 0 0-.3 1.4 3.3 3.3 0 0 0 0 .4 4 4 0 0 1-.2 1.3 2 2 0 0 0 0 .6l-.3.7a3.2 3.2 0 0 1-.3.7l-.3.6-.9 2.7c.3.9-.4 1.5-.8 2.1a2.7 2.7 0 0 1-.8 2.3v.4c0 .1.1.2.3.1l.4-.3.2-.4h.2c.1.1.2.1.4-.1h.2a.5.5 0 0 1 .1.6 2.9 2.9 0 0 0-.1.8c0 .1 0 .2.1.2h.2c.1.1.2 0 .3-.3l.2-.5h.3c.4-.1.4-.1.6-.6l.5-.9.3-.6.4-1a1.6 1.6 0 0 1 .3-1 .6.6 0 0 0 .1-.6c0-.2 0-.3.2-.6l.3-.4.5-1a4.7 4.7 0 0 1 .2-.9 3 3 0 0 0 .3-1.3 3.8 3.8 0 0 1 .3-.9v-.5c-.1-.2-.1-.2 0-.6s.1-.2.2-.2a.4.4 0 0 1 .1.3l.2-.5a2.3 2.3 0 0 0 .2-.9v-.3c0-.1 0-.3-.1-.3v.4c-.2 0-.3.2-.5.3a6.4 6.4 0 0 0 .1-.8l.4-.2a.7.7 0 0 0 .2-.6 1.4 1.4 0 0 1 0-.3 4.8 4.8 0 0 0 .2-1.4v-.2l.3-1h.1a.3.3 0 0 0 .1-.3h-.1a.9.9 0 0 1 .2-.8 1.5 1.5 0 0 0-.9-1zm-1.2 7.8zm-.2-9.9zm0 0zM9.1 30.8a.3.3 0 0 0 0-.2l-.2-.2-.2.2-.3.6c0 .3-.3.6-.3.9v.2h.1zm96.3 24.8h.1a1.7 1.7 0 0 0 .2-1.2.5.5 0 0 1 .2-.5h.1v-.2l-.2-.2h-.1c-.1.1-.2.3-.3.3s-.1.1-.1.3v.3a2.2 2.2 0 0 0 .1 1.2zM13.2 90.1c-.1 0 0 .2 0 .3l.8.8h.1c-.2-.3-.3-.6-.2-.7a.9.9 0 0 1-.5-.2zm.8.3zm92.3-35.7h.1a2 2 0 0 0 0-.6c-.3.1-.3.1-.3.6s.1.1.2 0z"></path><path d="M106.7 62a.6.6 0 0 0 .1-.5c0-.1-.1-.2-.1-.1h-.2v.2c0 .4.1.5.2.4zm.1-8.2h-.1v.6a1 1 0 0 0 .1-.6zM17.1 92.6h-.2v.2l.2.2h.2v-.2zm86.6-33.3c0-.1 0-.1-.1-.1zM9.9 86.5l.5.5-.4-.6z"></path><circle cx="10.5" cy="87.1" transform="rotate(-24.8 10.4 87.159)"></circle><path d="M9.7 30.1h-.1v.2-.2h.1zm83.2-6.6l-.2-.3h-.1zm-14.7 77.1zM5.9 32.2zm-.1.2a.3.3 0 0 0 .1-.2v.2zm1.9-4.9zM61.5 2.4zm42.8 58.2v.1-.1zM16.4 92.5h-.1c.1.1.2 0 .1-.1zm.2.7h.1l-.1-.1v.1zm73.9-71.3zm15.2 34.4zM14.6 91.7zm92.1-37zm-.8 11.4zM34.6 0z"></path></g></g><g id="SvgjsG1017" featurekey="symbolFeature-0" transform="matrix(0.9967854022979736,0,0,0.9967854022979736,106.6591235236097,64.46313843827926)" fill="#111111"><g xmlns="http://www.w3.org/2000/svg"><g><g><g><circle cx="42.692" cy="80.595" r="3.888"></circle></g><g><path d="M47.234,63.9c-2.255-2.058-3.994-8.579,2.516-10.977c6.207-2.287,13.525,12.121,1.83,15.094      c-12.603,3.204-18.063-19.139-6.175-27.443c31.126-21.742-3.546-40.633-0.124-9.834c5.776,42.406,6.482,41.893,6.698,47.784      c0.15,4.093-2.425,7.332-6.77,6.417c-1.409-0.297,0.298-1.566,0.229-1.601c-1.372-0.686-3.016,1.147-4.117,0.915      c8.69,4.803,11.756-1.338,11.507-5.946c-0.173-3.197-5.104-47.366-5.104-48.661c0-13.264,7.972-11.663,7.286-5.489      S40.145,40.573,36.486,48.12s-2.884,17.575,8.462,21.269c11.238,3.659,21.758-9.148,16.269-16.009      C52.911,42.998,37.204,56.124,47.234,63.9z"></path></g></g><g><path d="M38.43,27.664H21.825c-0.764,0-1.384-0.619-1.384-1.384c0-0.765,0.62-1.384,1.384-1.384H38.43     c0.764,0,1.384,0.619,1.384,1.384C39.814,27.045,39.194,27.664,38.43,27.664z"></path></g><g><path d="M77.175,27.664H63.337c-0.764,0-1.384-0.619-1.384-1.384c0-0.765,0.62-1.384,1.384-1.384h13.837     c0.764,0,1.384,0.619,1.384,1.384C78.559,27.045,77.939,27.664,77.175,27.664z"></path></g><g><path d="M34.279,40.117H14.906c-0.764,0-1.384-0.619-1.384-1.384c0-0.765,0.62-1.384,1.384-1.384h19.372     c0.764,0,1.384,0.619,1.384,1.384C35.663,39.499,35.043,40.117,34.279,40.117z"></path></g><g><path d="M84.094,40.117H55.035c-0.764,0-1.384-0.619-1.384-1.384c0-0.765,0.62-1.384,1.384-1.384h29.059     c0.764,0,1.384,0.619,1.384,1.384C85.477,39.499,84.858,40.117,84.094,40.117z"></path></g><g><path d="M27.36,52.571H10.755c-0.764,0-1.384-0.619-1.384-1.384s0.62-1.384,1.384-1.384H27.36c0.764,0,1.384,0.619,1.384,1.384     S28.124,52.571,27.36,52.571z"></path></g><g><path d="M88.245,52.571H67.489c-0.764,0-1.384-0.619-1.384-1.384s0.62-1.384,1.384-1.384h20.756c0.764,0,1.384,0.619,1.384,1.384     S89.009,52.571,88.245,52.571z"></path></g><g><path d="M30.128,65.025H16.29c-0.764,0-1.384-0.619-1.384-1.384c0-0.765,0.62-1.384,1.384-1.384h13.837     c0.764,0,1.384,0.619,1.384,1.384C31.511,64.406,30.892,65.025,30.128,65.025z"></path></g><g><path d="M84.094,65.025H67.489c-0.764,0-1.384-0.619-1.384-1.384c0-0.765,0.62-1.384,1.384-1.384h16.605     c0.764,0,1.384,0.619,1.384,1.384C85.477,64.406,84.858,65.025,84.094,65.025z"></path></g><g><path d="M32.895,77.479h-9.686c-0.764,0-1.384-0.619-1.384-1.384c0-0.765,0.62-1.384,1.384-1.384h9.686     c0.764,0,1.384,0.619,1.384,1.384C34.279,76.86,33.659,77.479,32.895,77.479z"></path></g><g><path d="M75.791,77.479H60.57c-0.764,0-1.384-0.619-1.384-1.384c0-0.765,0.62-1.384,1.384-1.384h15.221     c0.764,0,1.384,0.619,1.384,1.384C77.175,76.86,76.555,77.479,75.791,77.479z"></path></g></g></g></g><g id="SvgjsG1018" featurekey="nameFeature-0" transform="matrix(0.963391125202179,0,0,0.963391125202179,55.99999942577415,160.13487618845457)" fill="#111111"><path d="M16.44 25.439999999999998 c0.68 0.48 1.12 1.2 1.12 2.28 l0 7 c0 3.72 -2.16 5.28 -8.76 5.28 c-6.72 0 -8.8 -1.64 -8.8 -5.28 l0 -4.36 l5.92 0 l0 1.2 c0 0.96 0.72 1.4 3.04 1.4 c2.28 0 3.04 -0.44 3.04 -1.4 l0 -1.96 c0 -0.6 -0.2 -1 -0.96 -1.24 c-0.32 -0.08 -0.64 -0.12 -1 -0.12 c-0.48 0.04 -2.32 0.04 -2.68 0.04 l0 0 c-4.2 -0.16 -6.24 -1.12 -7 -3.04 c-0.24 -0.64 -0.36 -1.36 -0.36 -2.2 l0 -7.32 c0 -3.6 2.08 -5.48 8.44 -5.48 c7.04 0 8.44 1.8 8.44 5.48 l0 6.04 l-5.76 0 l0 -3.2 c0 -1.76 -0.36 -2.6 -2.08 -2.6 c-1.6 0 -2.08 0.88 -2.08 2.6 l0 3.44 l0 0 c0 0.2 0.2 2.44 2.6 2.44 c1.76 0 5.12 -0.24 6.88 1 z M29.08 10.239999999999998 c7.92 0 9.48 2.96 9.48 9.04 l0 12.04 c0 6.08 -2.32 8.68 -9.48 8.68 c-7.28 0 -9.52 -2.68 -9.52 -8.68 l0 -12.04 c0 -5.96 2.36 -9.04 9.52 -9.04 z M33.56 27.2 l0 -4.28 c0 -2.2 -0.68 -3.24 -4 -3.24 c-3 0 -3.96 1.08 -3.96 3.24 l0 4.28 c0 2.12 0.92 3.08 3.96 3.08 c3 0 4 -0.92 4 -3.08 z M52.08 30.52 c0 -0.16 0.04 -18.08 0.04 -18.08 l6.28 0 l0 18.88 c0 6.08 -2.2 8.68 -8.92 8.68 c-6.8 0 -8.92 -2.68 -8.92 -8.68 l0 -21.08 l7.44 0 l0 20.24 c0.08 2.84 4.04 2.88 4.08 0.04 z M67.24000000000001 10.239999999999998 l0 20.8 l13.12 0 l0 8.96 l-19.96 0 l0 -29.76 l6.84 0 z M95.92000000000002 25 l0 -14.76 l5.96 0 l0 29.76 l-5.96 0 l0 -6.48 l-5.8 0 l0 6.48 l-7.76 0 l0 -29.76 l7.76 0 l0 14.76 l5.8 0 z M103.88000000000001 40 l0 -29.76 l17.32 0 l0 8.36 l-10.48 0 l0 3.68 l8.6 0 l0 5.96 l-8.6 0 l0 3.4 l10.48 0 l0 8.36 l-17.24 0 l-0.08 0 z M145.44000000000003 20.12 l-3.2 0 l4.04 19.88 l-8.12 0 l-0.76 -3.68 l-7.08 0 l-0.64 3.68 l-6.48 0 l3.44 -19.88 l-1.96 0 l0 -9.88 l20.76 0 l0 9.88 z M131.76000000000002 27.8 l3.92 0 l-1.56 -7.68 l-1 0 z M155.12000000000003 10.239999999999998 l0 20.8 l13.12 0 l0 8.96 l-19.96 0 l0 -29.76 l6.84 0 z M170.24000000000004 40 l0 -29.76 l17.32 0 l0 8.36 l-10.48 0 l0 3.68 l8.6 0 l0 5.96 l-8.6 0 l0 3.4 l10.48 0 l0 8.36 l-17.24 0 l-0.08 0 z M200.12000000000003 31.48 c-0.16 -0.2 -0.36 -0.28 -0.56 -0.28 l-3.16 0 l0 7.32 l-6.84 0 l0 -28.28 l9.24 0 c7.36 0 8.8 1.76 8.8 5.36 l0 7.12 c0 3.12 -2.4 3.64 -4.24 4.16 c1.84 1.12 4.04 1.8 4.04 5.76 l-0.12 7.36 l-6.84 0 l0.08 -7.44 c0 -0.44 -0.12 -0.84 -0.4 -1.08 z M196.40000000000003 23 c0.36 0.12 0.8 0.16 1.36 0.16 c1.96 0 2.6 -0.64 2.6 -2.16 l0 -2.96 c0 -1.52 -0.44 -2.24 -2.6 -2.24 c-0.56 0 -1 0.04 -1.36 0.16 l0 7.04 z"></path></g><g id="SvgjsG1019" featurekey="sloganFeature-0" transform="matrix(0.5474100112915039,0,0,0.5474100112915039,75.12414418898408,206.7155405455494)" fill="#111111"><path d="M7.23 9.98 c2.09 0 3.54 1.42 3.54 4.04 l0 5.68 c0 0.18 -0.12 0.3 -0.3 0.3 l-1.56 0 c-0.18 0 -0.3 -0.12 -0.3 -0.3 l0 -5.36 c0 -1.67 -0.86 -2.37 -2.17 -2.37 c-1.67 0 -2.5 1.26 -2.68 1.87 l0 5.86 c0 0.18 -0.12 0.3 -0.3 0.3 l-1.56 0 c-0.18 0 -0.3 -0.12 -0.3 -0.3 l0 -13.4 c0 -0.18 0.12 -0.3 0.3 -0.3 l1.56 0 c0.18 0 0.3 0.12 0.3 0.3 l0 5.52 l0.16 0 c0.59 -0.94 1.66 -1.84 3.31 -1.84 z M28.8435 9.98 c2.96 0 4.74 2.27 4.74 4.89 c0 0.74 -0.09 1.11 -0.65 1.11 l-6.99 0 c0.23 1.52 1.5 2.5 3.31 2.5 c1.05 0 1.78 -0.32 2.45 -0.83 c0.16 -0.12 0.28 -0.15 0.43 0 l0.66 0.66 c0.15 0.15 0.16 0.29 0 0.45 c-0.95 0.95 -2.19 1.5 -3.76 1.5 c-3.12 0 -5.19 -2.26 -5.19 -5.14 s2.07 -5.14 5 -5.14 z M28.853499999999997 11.83 c-1.53 0 -2.67 1 -2.89 2.59 l5.72 0 c-0.16 -1.57 -1.27 -2.59 -2.83 -2.59 z M56.167 18.21 c0.25 0.06 0.36 0.14 0.36 0.35 l0 1.19 c0 0.23 -0.22 0.32 -0.57 0.33 c-1.45 0.03 -2.13 -0.5 -2.13 -1.64 l-0.09 0 c-1.02 1.16 -2.74 1.8 -4.15 1.8 c-2.19 0 -3.33 -1.09 -3.33 -2.79 c0 -1.77 1.13 -2.67 3.36 -3 l2.33 -0.36 c0.83 -0.13 1.27 -0.24 1.39 -0.47 c-0.05 -1.36 -0.83 -1.8 -2.12 -1.8 c-1.27 0 -2.19 0.34 -2.34 1.35 c-0.02 0.14 -0.11 0.22 -0.29 0.22 l-1.49 0 c-0.18 0 -0.31 -0.1 -0.29 -0.3 c0.24 -2.33 1.98 -3.11 4.43 -3.11 c2.84 0 4.2 1.33 4.2 3.74 l0 3.67 c0 0.44 0.23 0.72 0.73 0.82 z M49.997 18.39 c1.11 0 2.28 -0.25 3.34 -1.31 l0 -2.01 c-0.11 0.23 -0.5 0.34 -1.25 0.46 l-2.1 0.33 c-1.18 0.19 -1.57 0.66 -1.57 1.32 c0 0.73 0.48 1.21 1.58 1.21 z M78.01050000000001 18.19 c0.18 0 0.3 0.12 0.3 0.3 l0 1.21 c0 0.18 -0.12 0.3 -0.3 0.3 l-8.71 0 c-0.18 0 -0.3 -0.12 -0.3 -0.3 l0 -1.21 c0 -0.18 0.12 -0.3 0.3 -0.3 l3.49 0 l0 -10.38 l-3.26 0 c-0.18 0 -0.3 -0.12 -0.3 -0.3 l0 -1.21 c0 -0.18 0.12 -0.3 0.3 -0.3 l5.12 0 c0.18 0 0.3 0.12 0.3 0.3 l0 11.89 l3.06 0 z M118.5575 10.2 c0.22 0 0.33 0.12 0.24 0.34 l-5.4 13.02 c-0.06 0.16 -0.2 0.24 -0.36 0.24 l-1.56 0 c-0.22 0 -0.33 -0.12 -0.24 -0.34 l1.43 -3.44 l-3.97 -9.48 c-0.09 -0.22 0.02 -0.34 0.24 -0.34 l1.56 0 c0.16 0 0.3 0.08 0.36 0.24 l2.89 7.13 l2.88 -7.13 c0.07 -0.16 0.2 -0.24 0.36 -0.24 l1.57 0 z M136.461 20.26 c-2.85 0 -5.15 -2.26 -5.15 -5.14 c0 -2.87 2.3 -5.14 5.15 -5.14 c2.84 0 5.14 2.27 5.14 5.14 c0 2.88 -2.3 5.14 -5.14 5.14 z M136.461 18.25 c1.72 0 3.05 -1.4 3.05 -3.13 c0 -1.72 -1.33 -3.14 -3.05 -3.14 c-1.73 0 -3.06 1.42 -3.06 3.14 c0 1.73 1.33 3.13 3.06 3.13 z M163.4845 10.2 c0.18 0 0.3 0.12 0.3 0.3 l0 9.2 c0 0.18 -0.12 0.3 -0.3 0.3 l-1.48 0 c-0.18 0 -0.28 -0.12 -0.3 -0.3 l-0.08 -1.33 l-0.2 0 c-0.61 0.95 -1.67 1.85 -3.27 1.85 c-2.1 0 -3.58 -1.42 -3.58 -4.04 l0 -5.68 c0 -0.18 0.12 -0.3 0.3 -0.3 l1.56 0 c0.18 0 0.3 0.12 0.3 0.3 l0 5.36 c0 1.67 0.88 2.38 2.29 2.38 c1.76 0 2.6 -1.65 2.6 -2.09 l0 -5.65 c0 -0.18 0.12 -0.3 0.3 -0.3 l1.56 0 z M183.018 9.98 c2.16 0 3.75 1.32 3.75 3.81 c0 0.19 -0.1 0.3 -0.29 0.32 l-1.56 0.22 c-0.19 0.03 -0.3 -0.08 -0.32 -0.27 c-0.09 -1.46 -0.99 -2.07 -2.27 -2.07 c-2.02 0 -2.96 1.69 -2.96 2.29 l0 5.42 c0 0.18 -0.12 0.3 -0.3 0.3 l-1.56 0 c-0.18 0 -0.3 -0.12 -0.3 -0.3 l0 -9.2 c0 -0.18 0.12 -0.3 0.3 -0.3 l1.48 0 c0.18 0 0.28 0.12 0.3 0.3 l0.08 1.32 l0.22 0 c0.64 -0.94 1.83 -1.84 3.43 -1.84 z M221.84500000000003 14.3 c2.11 0.27 4.56 0.53 4.56 2.94 c0 1.79 -1.48 3.02 -4.51 3.02 c-2.62 0 -4.39 -0.77 -4.62 -3.1 c-0.02 -0.2 0.11 -0.3 0.29 -0.3 l1.49 0 c0.18 0 0.27 0.08 0.29 0.22 c0.15 1.01 1.09 1.38 2.51 1.38 c1.54 0 2.43 -0.4 2.43 -1.26 c0 -0.91 -1.04 -1.13 -2.44 -1.3 c-2.08 -0.27 -4.38 -0.55 -4.38 -2.92 c0 -1.77 1.38 -3 4.23 -3 c2.48 0 4.27 0.76 4.5 3.09 c0.02 0.2 -0.11 0.3 -0.29 0.3 l-1.49 0 c-0.18 0 -0.27 -0.08 -0.29 -0.22 c-0.15 -1.01 -1.11 -1.38 -2.4 -1.38 c-1.33 0 -2.15 0.38 -2.15 1.25 s0.88 1.1 2.27 1.28 z M244.1785 20.26 c-2.85 0 -5.15 -2.26 -5.15 -5.14 c0 -2.87 2.3 -5.14 5.15 -5.14 c2.84 0 5.14 2.27 5.14 5.14 c0 2.88 -2.3 5.14 -5.14 5.14 z M244.1785 18.25 c1.72 0 3.05 -1.4 3.05 -3.13 c0 -1.72 -1.33 -3.14 -3.05 -3.14 c-1.73 0 -3.06 1.42 -3.06 3.14 c0 1.73 1.33 3.13 3.06 3.13 z M271.20200000000006 10.2 c0.18 0 0.3 0.12 0.3 0.3 l0 9.2 c0 0.18 -0.12 0.3 -0.3 0.3 l-1.48 0 c-0.18 0 -0.28 -0.12 -0.3 -0.3 l-0.08 -1.33 l-0.2 0 c-0.61 0.95 -1.67 1.85 -3.27 1.85 c-2.1 0 -3.58 -1.42 -3.58 -4.04 l0 -5.68 c0 -0.18 0.12 -0.3 0.3 -0.3 l1.56 0 c0.18 0 0.3 0.12 0.3 0.3 l0 5.36 c0 1.67 0.88 2.38 2.29 2.38 c1.76 0 2.6 -1.65 2.6 -2.09 l0 -5.65 c0 -0.18 0.12 -0.3 0.3 -0.3 l1.56 0 z M293.5855 18.19 c0.18 0 0.3 0.12 0.3 0.3 l0 1.21 c0 0.18 -0.12 0.3 -0.3 0.3 l-8.71 0 c-0.18 0 -0.3 -0.12 -0.3 -0.3 l0 -1.21 c0 -0.18 0.12 -0.3 0.3 -0.3 l3.49 0 l0 -10.38 l-3.26 0 c-0.18 0 -0.3 -0.12 -0.3 -0.3 l0 -1.21 c0 -0.18 0.12 -0.3 0.3 -0.3 l5.12 0 c0.18 0 0.3 0.12 0.3 0.3 l0 11.89 l3.06 0 z"></path></g></svg>